<svg xmlns="http://www.w3.org/2000/svg" viewBox="0 0 856.92 162.47"><defs><style>.cls-1{fill:#2d55a6;}</style></defs><g id="Layer_2" data-name="Layer 2"><g id="Layer_1-2" data-name="Layer 1"><g id="Layer_2-2" data-name="Layer 2"><g id="Layer_1-2-2" data-name="Layer 1-2"><path class="cls-1" d="M841.9,89c.62.32,1,.55,1.31.69,5.3,1.91,8.34,5.87,10,11.07A48.79,48.79,0,0,1,855,115.44v22.84a38.62,38.62,0,0,0,1.92,13.37c-.57,0-1,.12-1.45.12H839c-1.07,0-1.67-.25-1.83-1.36a71.38,71.38,0,0,1-1.07-7.86c-.18-8.4-.1-16.8-.2-25.19,0-3-.19-6-.49-9-.57-5.75-3.53-8.77-9.31-9.3-3-.28-6,0-9.25,0v52.68c-.72,0-1.26.09-1.81.09H799.72c-2,0-2,0-2-2.09V31.24c0-2.39,0-2.4,2.39-2.39,9.82,0,19.64,0,29.45.11,6,.09,11.69,1.5,16.57,5.23,4.71,3.59,7.08,8.58,7.91,14.27a80.75,80.75,0,0,1,0,24.44c-1.11,6.76-4.29,12.34-10.93,15.34A11.77,11.77,0,0,0,841.9,89Zm-25-7.57a85.72,85.72,0,0,0,9.75-.07c6.49-.74,8.64-5.29,8.85-9.78s.26-9.27.24-13.91a19.65,19.65,0,0,0-.64-4.63c-1-4.27-3.31-6.37-7.66-6.77-3-.27-5.94-.12-8.91-.27-1.39-.07-1.75.41-1.74,1.78V79.86c0,.5.05,1,.08,1.58Z"/><path class="cls-1" d="M208.65,151.77V31.08c0-2.25,0-2.26,2.18-2.25,10.07,0,20.15-.08,30.22.13,6.63.14,12.76,2,17.73,6.71a24.15,24.15,0,0,1,7.05,13.64,53.78,53.78,0,0,1,.93,9.29q.12,32.55,0,65.08a32.51,32.51,0,0,1-4,16c-3.57,6.35-9.24,9.79-16.22,11.08a58.88,58.88,0,0,1-10,.94c-8.66.13-17.33,0-26,0Zm19-61.58V132.9c0,.8-.07,1.57,1.15,1.54,3.34,0,6.69.08,10-.08,4.6-.22,7.5-2.75,8.36-7.22a33.44,33.44,0,0,0,.6-6q.06-30.42,0-60.85a40.83,40.83,0,0,0-.28-5.3c-.64-4.65-2.56-8.35-8.46-8.73-3.12-.2-6.25-.14-9.38-.18-2,0-2,0-2,2.08Z"/><path class="cls-1" d="M531.16,90.24c0-11.94-.13-23.89.06-35.82A29.2,29.2,0,0,1,536.94,37c4.25-5.69,10.2-8.5,17-9.52A37.65,37.65,0,0,1,572.3,29c9.39,3.29,14.5,10.29,16.29,19.69a69.17,69.17,0,0,1,.95,12.44c.09,20.28.05,40.57,0,60.86a42.12,42.12,0,0,1-2.28,14.73,23.68,23.68,0,0,1-17,15.48,37,37,0,0,1-22.46-.74c-8.82-3.16-13.84-9.78-15.71-18.74a60.56,60.56,0,0,1-1.09-11.32c-.14-10.37,0-20.75,0-31.13Zm19,0v16.9c0,6.16-.1,12.32.08,18.47.2,6.9,3.46,10.28,9.77,10.52,5.65.21,9.06-2.39,10-7.89a34.91,34.91,0,0,0,.49-6.21q.06-30.9,0-61.81a54.38,54.38,0,0,0-.2-6.25c-.65-5.59-3.12-9.42-9.78-9.58-5.7-.13-9.34,2.87-10.09,8.48a34.78,34.78,0,0,0-.31,4.67q0,16.31,0,32.7Z"/><path class="cls-1" d="M481,106h17.85a3.78,3.78,0,0,1,.17.74c-.09,7.19.12,14.4-.37,21.57-.56,8.07-3.47,15.23-10.37,20.16a26.24,26.24,0,0,1-13.1,4.7c-6,.56-11.88.29-17.52-2.06-8.23-3.43-12.73-9.9-14.47-18.35a53.08,53.08,0,0,1-1-10.38c-.07-22.48-.13-45,0-67.44,0-7,1.89-13.69,6.57-19.28A23,23,0,0,1,461,28.24a36.81,36.81,0,0,1,19.32.07c9.41,2.61,15.05,9,17.41,18.28,1.95,7.68,1.09,15.53,1.29,23.42H481c0-.62-.07-1.22-.08-1.83-.09-5,0-9.91-.3-14.84a9.72,9.72,0,0,0-15.14-7.56c-2.69,1.69-3.87,4.44-4.11,7.55-.15,2-.19,4-.19,5.94V121.7a38.16,38.16,0,0,0,.43,6.84c.95,5.2,4.32,7.73,9.63,7.57,5.74-.17,9.1-3.17,9.38-9,.3-6.3.21-12.61.28-18.92A17.85,17.85,0,0,0,481,106Z"/><path class="cls-1" d="M401.26,62.71h-7.52c-1.15,0-1.52-.39-1.56-1.54-.1-3.06-.16-6.15-.55-9.18-.54-4.1-3.12-6.92-6.92-7.47-4.38-.65-8.56,0-10.54,3.88a17.32,17.32,0,0,0-1.65,6.42,22.75,22.75,0,0,0,6.58,17.95c4.78,5,10,9.63,14.84,14.57a108.81,108.81,0,0,1,9.5,10.52c5.57,7.34,7.6,15.84,7.32,25a43.17,43.17,0,0,1-2.57,14.68c-2.88,7.38-8.28,12-15.72,14.28a36.41,36.41,0,0,1-23.2-.35c-7.62-2.67-12.16-8.31-14.51-15.87-1.92-6.18-1.76-12.54-1.72-18.9,0-.83.4-1,1.17-1h15.5c1.14,0,1.27.53,1.28,1.43,0,3.13,0,6.26.2,9.38.25,3.81,1.44,7.32,5.38,8.79,5,1.87,12.21,1.25,14-5.29a24.9,24.9,0,0,0-3.08-20.55,56.4,56.4,0,0,0-10-11.22c-6.33-5.76-12.8-11.38-17.61-18.58a36.82,36.82,0,0,1-6.48-20.86c0-6.09.52-12,3.22-17.65,3.48-7.22,9.25-11.5,17-13.17a37.38,37.38,0,0,1,19.6.76c8,2.59,13.05,8.09,15.46,16.08,1.66,5.46,1.77,11.08,1.74,16.71,0,1-.51,1.23-1.38,1.22C406.48,62.7,403.87,62.71,401.26,62.71Z"/><path class="cls-1" d="M618.68,29c.44-.07.88-.12,1.33-.15h16.45c1.19,0,1.53.54,1.66,1.54q1.13,8.67,2.26,17.34c1.11,8.31,2.24,16.61,3.34,24.92S645.88,89.14,647,97.4q1.49,11.22,3,22.43c.19,1.47.39,2.93.58,4.39h.51c.22-1.33.48-2.66.65-4q2.56-19.41,5.11-38.86,2.28-17.1,4.6-34.2c.76-5.67,1.52-11.35,2.24-17,.09-.76.2-1.3,1.13-1.3h16a2.6,2.6,0,0,1,.55.21c-.54,3.62-1.06,7.26-1.61,10.89-1.1,7.24-2.23,14.49-3.33,21.73q-2.11,13.89-4.21,27.78-2.26,14.91-4.55,29.79-2.39,15.66-4.72,31.34c-.14.91-.56,1.18-1.46,1.18H638.6c-1,0-1.37-.32-1.52-1.29q-3.29-22.05-6.63-44.13-3-19.5-5.93-39-2.76-18-5.54-35.89C618.87,30.72,618.79,30,618.68,29Z"/><path class="cls-1" d="M765,46H733.65c-2.08,0-2.09,0-2.09,2V77c0,2,0,2,2.09,2h24.42c0,.54.12,1,.13,1.43,0,4.75-.05,9.5,0,14.24,0,1.32-.51,1.56-1.65,1.55H733.84c-.72,0-1.44.09-2.22.13v38H765v17.3H712.67c0-.58-.09-1.13-.09-1.69V30.77c0-1.46.34-2,1.89-2q24.45.09,48.88,0c1.3,0,1.84.26,1.81,1.71-.1,4.64,0,9.29,0,13.93A10.2,10.2,0,0,0,765,46Z"/><path class="cls-1" d="M80.35,24.24c8.76.17,15.51.9,22,3.06,4.09,1.36,8,3.18,12.07,4.68a6.49,6.49,0,0,0,3,.2c6.31-.84,12.52-.82,18.29,2.34s8.67,8.49,9.49,15a38.91,38.91,0,0,1-.53,11.5,5.53,5.53,0,0,0,.39,2.7c1,2.83,2.15,5.64,3.36,8.4a7.13,7.13,0,0,0,1.71,2.29c2.4,2.3,5.16,4.3,7.28,6.83,7.26,8.69,6.88,18.84-.92,27.07a57.94,57.94,0,0,1-6.62,5.71,6.48,6.48,0,0,0-2.25,2.85c-6.4,17.11-17.64,30-34,38.21a68.85,68.85,0,0,1-37,7.13,69.83,69.83,0,0,1-25.91-7.3,4.89,4.89,0,0,0-2.67-.37c-5.76.76-11.47.94-17-1.38-6.77-2.88-10.25-8.24-11.3-15.35a36.83,36.83,0,0,1,.51-12.12,4.78,4.78,0,0,0-.35-2.45q-1.65-4.39-3.49-8.7a5.56,5.56,0,0,0-1.62-2.16,40.12,40.12,0,0,1-8.37-8.14C.7,96.38.84,87.34,7.19,80c2.39-2.78,5.47-5,8.18-7.46a6.6,6.6,0,0,0,1.75-2.27c9.3-24,26.5-38.94,51.68-44.51A109.53,109.53,0,0,1,80.35,24.24Zm4,101.1h9.7a2.68,2.68,0,0,0,1.53-.58,148.7,148.7,0,0,0,19.15-18.4c.64-.76.8-1.25.13-2.12a14.27,14.27,0,0,1,15.82-22.37c.93.29,1.39.19,1.86-.7a78.34,78.34,0,0,0,6.94-16.87,3.84,3.84,0,0,0-.33-2.62c-8.46-14.66-20.61-24.86-36.83-30A64.93,64.93,0,0,0,19.38,109.4a3.49,3.49,0,0,0,1.56,2.1,138.54,138.54,0,0,0,13.61,6.29c16.1,5.85,32.83,7.84,49.84,7.57ZM56.47,152.61c8.21,6.63,33.65,7.42,49.1,1.43,17-6.6,29.09-18.41,36.84-35.32-.48.12-1,.26-1.43.42-13.47,6.18-27.74,9-42.42,10.09A6.05,6.05,0,0,0,95,130.65C83.75,139.71,71.65,147.32,57.87,152,57.45,152.14,57,152.38,56.47,152.61ZM22.15,117c-.06.36-.12.47-.09.56.13.39.26.79.42,1.17A64.7,64.7,0,0,0,45.8,147.1c4.49,3.1,4.53,3.08,9.72,1.38,12-3.93,22.64-10.32,32.69-17.81a4.44,4.44,0,0,0,.63-.8C65.61,130,43.18,127.32,22.15,117Zm80.34,7.56a12.35,12.35,0,0,0,1.49,0c3.66-.56,7.33-1,11-1.74,9.87-1.92,19.43-4.78,28.32-9.63a3.49,3.49,0,0,0,1.86-2.31,63.93,63.93,0,0,0-1.73-40.35c-.23-.51-.48-1-.76-1.5-.3.71-.45,1.09-.62,1.46-1.86,4.13-3.67,8.28-5.65,12.35a2.19,2.19,0,0,0,.39,3,14.07,14.07,0,0,1,1,18,14.23,14.23,0,0,1-17.32,4.7,1.93,1.93,0,0,0-2.63.63q-5.43,5.85-11,11.56C105.58,121.94,104.16,123.07,102.49,124.55Zm33.82-29a10.13,10.13,0,1,0-10.26,10h.15a10.19,10.19,0,0,0,10.11-10ZM24,130.63c-1.07,5.82.56,13.25,5.41,16.83,4.07,3,8.68,3.7,13.63,3.17A78.56,78.56,0,0,1,24,130.63Zm97.91-94.39a84.85,84.85,0,0,1,19,19.48c.49-5.49.08-10.74-3.85-14.93C133,36.44,127.65,35.66,121.91,36.24ZM14.43,78.79c-4.65,3.78-8.08,8.15-7.91,14.45.15,5.42,5.14,11.91,7.77,12.89A75,75,0,0,1,14.43,78.79Zm136.39,1.85a74.42,74.42,0,0,1-.59,27.39c4.1-1.92,8.24-8.89,8.15-13.72C158.28,88.48,155.18,84.24,150.82,80.64Z"/><path class="cls-1" d="M320.32,151.68c-.63,0-1.1.07-1.56.07H303.1c-1.43,0-1.9-.45-1.7-1.78a3.68,3.68,0,0,0,0-.47V31.1c0-2.31,0-2.31,2.29-2.31h15c1.26,0,1.7.35,1.7,1.68V150.31C320.4,150.69,320.35,151.1,320.32,151.68Z"/><path class="cls-1" d="M13.13,15.61a16.52,16.52,0,0,1,33,.2,16.61,16.61,0,0,1-16.7,16.35A16.43,16.43,0,0,1,13.13,15.61ZM29.62,28A12.3,12.3,0,1,0,17.35,15.67v.13A12.36,12.36,0,0,0,29.62,28Z"/><path class="cls-1" d="M164.08,26.93a7.46,7.46,0,0,1,7.46,7.45c0,.11,0,.22,0,.33a7.59,7.59,0,0,1-15.16-.6A7.44,7.44,0,0,1,164,26.93Zm-.15,4a3.48,3.48,0,0,0-3.34,3.45,3.37,3.37,0,1,0,6.74-.06h0a3.47,3.47,0,0,0-3.4-3.35Z"/><path class="cls-1" d="M160.5,126.59a6.6,6.6,0,1,1-6.63,6.57v-.08a6.55,6.55,0,0,1,6.61-6.49Zm2.44,6.64a2.43,2.43,0,0,0-4.86-.11h0a2.43,2.43,0,1,0,4.86.11Z"/><path class="cls-1" d="M152.23,55.83a4.21,4.21,0,0,1,4.11-4.32h.09a4.27,4.27,0,1,1-4.2,4.4Z"/><path class="cls-1" d="M8.63,123.24a4.2,4.2,0,0,1-4.11,4.31h-.1A4.47,4.47,0,0,1,0,123.24,4.33,4.33,0,0,1,4.33,119a4.08,4.08,0,0,1,4.3,3.83C8.63,123,8.64,123.11,8.63,123.24Z"/><path class="cls-1" d="M46.51,106.12a10.74,10.74,0,1,1-.17-21.48h.54a10.74,10.74,0,1,1,.17,21.48Zm.16-4.24a6.48,6.48,0,0,0,6.57-6.39v-.13a6.58,6.58,0,0,0-13.15,0,6.4,6.4,0,0,0,6.28,6.53Z"/><path class="cls-1" d="M96,48.47a4.24,4.24,0,1,1,.41,0Z"/><path class="cls-1" d="M69.1,112.17A4.15,4.15,0,0,1,65,116.4h-.17a4.37,4.37,0,0,1-4.34-4.23A4.2,4.2,0,0,1,64.72,108h.12a4,4,0,0,1,4.26,3.73A3.38,3.38,0,0,1,69.1,112.17Z"/></g></g></g></g></svg>