<svg id="e2g6tnfrdiZ1" xmlns="http://www.w3.org/2000/svg" xmlns:xlink="http://www.w3.org/1999/xlink" viewBox="0 0 859.49 879" shape-rendering="geometricPrecision" text-rendering="geometricPrecision"><g id="e2g6tnfrdiZ2" transform="matrix(.8 0 0 0.8 85.949319 87.899886)"><g><g><g><path d="M420.12,879c-33.22,0-59.41-1.91-84.74-8.72-18.55-5-37.26-10.17-54.76-18.37-6.08-2.85-12.36-5.58-18.08-9.11-10.29-6.36-21-6.26-32.53-4.87-19,2.3-38.37,3-57-2.39-39.08-11.21-63.35-36.9-72.24-76.83-5.22-23.44-4.75-47-.71-70.45c1.588571-8.599975.761252-17.472014-2.39-25.63q-7.38-19.35-14.5-38.82c-2.364439-6.669073-6.587202-12.522648-12.17-16.87-9.553883-7.449818-18.349783-15.823676-26.26-25-21.6-24.69-34.95-52.62-33.29-86.35.677598-13.195697,4.007195-26.119566,9.79-38c8-16.64,19.64-30.65,33.42-42.93c8.39-7.48,16.57-15.19,24.68-23c6.06-5.82,8-14,10.76-21.44c5.532124-14.942823,12.008515-29.518879,19.39-43.64c16.14-31,35.23-60,59.67-85.33c12.120505-12.761795,25.155034-24.623217,39-35.49c20.59-15.9,42.82-28.66,66.39-39.66c14.33-6.69,29.33-10.89,44-16.43c26.57-10.09,54.36-13.58,82.3-14.67c32.37-1.26,64.73,1.41,96,10.35c15.82,4.51,31.14,11,46.34,17.45c5.58,2.36,11.21,4.92,16.58,7.79c12.87,6.88,26.21,6.76,40.27,5c18.87-2.43,38-2.34,56.3,3.54c38.49,12.38,61.62,39,69.43,78.73c4.27,21.77,3.94,43.63.36,65.41-1.798246,9.865381-.868119,20.034542,2.69,29.41c4.92,12.68,9.3,25.58,14.45,38.17c4,9.67,11.62,16.6,19.32,23.32c12.2,10.64,23.3,22.26,32.41,35.72c24.46,36.13,27.16,80.84,2.84,119-9.136613,14.078183-20.319323,26.716869-33.18,37.5-5.93,5.07-12,10.06-17.67,15.48-6.6,6.33-8.46,15.14-11.47,23.21-6.05899,16.337913-13.201526,32.253274-21.38,47.64-15.76,29.56-34.64,56.84-58.15,80.91-12.392484,12.76077-25.715813,24.583302-39.86,35.37-20.501399,15.399762-42.526351,28.658964-65.73,39.57-14.28,6.82-29.16,11.31-43.89,16.59C476.27,876,444.84,878.34,420.12,879Zm-3-201.44c17.24,0,34.47-.06,51.71,0c4.280554.182651,8.455536-1.359103,11.59-4.28C497.64,657.56,514.61,641.62,531,625c14.79-15,28.32-31,42-47c3.63-4.26,4.8-8.24,1.34-13.15-14-19.9-18.77-42.07-13.11-65.54c8.11-33.59,28.44-51.8,60.45-58.94c10.86-2.42,21.42-.54,31.62,3.87c4.88,2.11,8.13.89,10.4-4.59c4.15-10,9.38-19.54,13.7-29.48c7.982744-18.322772,14.577963-37.21926,19.73-56.53c1.81732-6.396734,1.052528-13.251133-2.13-19.09-11.454327-21.824003-25.165997-42.386481-40.91-61.35-17.33231-21.220956-37.400319-40.051527-59.68-56-20-14.31-41.84-25.77-64.42-35.51-19.92-8.6-41.05-14-62.17-18.08-39.72-7.62-79.48-7.45-119.33,2.23-34.11,8.3-66.31,20.13-96.12,38.82-17.46812,10.813103-33.912984,23.197796-49.13,37-28.854107,26.397302-53.011471,57.50701-71.44,92-15.9488,29.621319-27.662967,61.333724-34.8,94.21-12.11,54.77-11.06,109.41,1.19,164c.862996,4.655257,3.628261,8.739731,7.63,11.27c16.12,10.21,33.41,18.3,50.42,26.74c15.11,7.49,31.28,13,47.27,18.55c23.05,8,47,13.28,70.79,18.08c47.07,9.49,94.9,11.81,142.85,11Zm-131.95,148c5.53,5,10.5,8.82,16.55,11.11c24.75,9.34,50.23,15.49,76.67,17c30.37,1.74,60.62,1.5,90.61-5.1c23-5.06,46.24-8.54,67.43-19.89c11.55-6.18,23.71-11,35-18c39.978644-23.937466,74.328538-56.2102,100.71-94.62c14.62-20.77,26.41-43,37.1-66c.8-1.71,1.76-3.38.68-5.53-.838021.074938-1.658516.284282-2.43.62-14.84,9.77-32,14.3-48.11,21.25-21.41,9.26-44.47,14.11-67,19.7-30.75,7.62-62.32,11.11-93.95,13.5-4.29.32-8.53.71-12.75,3-10,5.45-17.93,13.4-26.65,20.46-15.31,12.4-30.72,24.8-47,35.81-23.87,16.15-48.13,31.89-74.44,43.89-15.4,7-30.37,15.11-46.67,20-1.967387.784608-3.878552,1.703438-5.72,2.75ZM441.94,705.09c-.500919-.219357-1.028938-.370699-1.57-.45-29.694787.124173-59.374631-1.354645-88.91-4.43-37.53-4.09-75.14-7.09-111.69-17.58-23-6.6-46.51-11.3-68.55-21.18-12.72-5.7-26.38-9.12-38.5-16.47-6.33-3.83-13.54-6.23-21.33-9.71.7,2.19.93,3,1.21,3.77c13.83,38.15,34.36,72.48,60.51,103.3C188.49,760.45,205.36,777.27,225,791c1.18.83,2,2.12,3.16,3c12.57,10.36,25.4,18.31,42.9,11c11.88-5,24.4-8.23,36-14.18s23.36-10.82,34.81-16.82c25.21-13.36,48.66-29.26,71.78-45.76c9.14-6.51,17.89-13.57,26.81-20.4c1.047822-.487843,1.649997-1.606749,1.48-2.75Zm272.64-327c-1.23,2.14-1.83,3-2.22,3.9q-14.91,35.22-29.79,70.43c-2.2,5.2-.66,9.61,2.74,13.53c14,16.07,20.35,34.93,18.78,55.92-2.23,29.76-15.22,53.13-43.09,66.48-.77.37-1.56.69-2.32,1.07-17.62,8.79-35.23,8.7-52.91.08-4.4-2.14-9-4.58-13.35.3-8.84,10-17.52,20.16-26.48,30.05-13,14.29-25,29.39-39,42.8-3.23,3.1-7.14,6.12-9.92,11.1c3.68-.28,6.45-.26,9.13-.74c18.32-3.28,36.85-5.14,54.93-10.06c21.63-5.89,43.58-10.24,64.84-17.92c23.25-8.4,45.41-18.74,67.33-29.92c6.776497-3.270333,11.67073-9.477563,13.27-16.83c7.069499-27.865261,10.970866-56.439503,11.63-85.18.500526-31.107197-2.950399-62.152082-10.27-92.39-3.34-14-7.14-27.95-13.3-42.63ZM631.65,571c28.93.14,49.42-23.33,50.1-52.72.7-30.23-21.69-54.06-49.86-54.26-28.52-.2-49.77,23.67-50.07,52-.33,31.61,21.06,54.98,49.83,54.98ZM121.09,709.51c-1.92,14.46-1.62,27,.88,39.34c5.21,25.8,16.7,47.17,42.29,58c15.28,6.5,31,10.6,49.73,7.35-37.21-29.79-67.45-64.12-92.9-104.69ZM756.17,441.45c3.79,24.44,4.59,47.78,4.41,71.22s-3.36,46.77-7,70.72c40.02-28.39,59.14-95.1,2.59-141.94Zm-684.62-10c-54.63,43.17-44.27,108.91-.62,141.79-7.78-47.44-7.21-94.19.62-141.8Zm632.9-130.22c9.07-77.34-44.53-109.09-91.28-100.52c36,28.55,65.27,62.29,91.28,100.51Z" fill="#2d55a6"/><path d="M148.05,0c12.38-.06,24.33,2.22,35.2,7.91c28.63,15,45.1,39,48.27,71.05c3.42,34.51-8.94,62.25-36.64,84.11-21.73,17.14-62.31,20.45-87.71,3.74-36.237349-23.746288-51.109703-69.481792-35.77-110C82.55,27.41,102.34,7.48,134.12,1.4c4.57-.87,9.28-.95,13.93-1.4ZM88.33,88.91c.21,28.55,12.48,47.51,34.76,59.35c18.55,9.85,37.85,8.43,56.66-3.4c24.63-15.49,35-47.71,27.49-73.64-9.45-32.68-37.52-54-73.29-45.59-25.32,5.96-46.42,33.43-45.62,63.28Z" fill="#2d55a6"/><path d="M820.31,230.32c-22.34.81-38.61-20.5-38.28-41.69.35-23.48,17.32-40.2,39.44-39.58s38.66,18.47,38,41.16c-.64,22.14-18.01,41.47-39.16,40.11Zm.51-57.91c-9.34-.07-15.79,6.73-15.93,16.77-.13,9.89,6.93,17.53,16.18,17.5c8.75,0,15.66-7.72,15.6-17.36-.05-9.95-6.52-16.85-15.85-16.91Z" fill="#2d55a6"/><path d="M837.32,721.13c0,19.31-15.91,36.82-33.44,36.91-17.77.1-34.48-17.54-34.27-36.91.21-19.83,12.59-36.15,35.33-35.8c18.06.28,32.42,16.14,32.38,35.8Zm-22.54-.44c-.06-6.92-4.73-11.55-11.54-11.43s-11.11,4.81-11,12c.13,6.43,5.59,12.07,11.53,11.93s11.07-5.93,11.01-12.5Z" fill="#2d55a6"/><path d="M22.91,643.87c12.4.14,21.83,10.68,21.58,24.1-.24,13-10,23.44-21.9,23.44C10.43,691.41,-0.08,680,0,667c.08-12.45,10.8-23.27,22.91-23.13Z" fill="#2d55a6"/><path d="M783.43,327.5c-12.81.19-22-9.24-22.12-22.78-.16-13.12,9.38-23.64,21.56-23.78c12.33-.13,23,10.52,23.23,23.23.191348,5.993999-2.006449,11.818477-6.109827,16.191912s-9.776149,6.937517-15.770173,7.128088Z" fill="#2d55a6"/><path d="M179.57,513.24c2.41-22.67,12.78-41.5,37.64-51c19.81-7.56,46,.45,58.51,17.82c12.19,17,15.66,34.86,10.73,54.88-1.842481,7.237829-5.256712,13.980935-10,19.75-13.35,16.47-35.18,27.86-57.61,19.38-25.72-9.69-39.33-28.41-39.27-60.83Zm22.59,4c.11,20.48,12.62,33.8,31.76,33.83s32.16-13.79,32.08-33.68c-.09-19.34-14.27-34.31-32.23-34-18.15.3-31.71,14.83-31.61,33.9Z" fill="#2d55a6"/><path d="M480.79,266c-13.61-.07-21.1-10.16-21.76-23.38-.59-11.93,10.8-24.24,21.61-24.34c11.64-.1,23.57,12.26,22.88,24.52-.74,13.2-9.02,23.47-22.73,23.2Z" fill="#2d55a6"/><path d="M346.83,607.63c1.43,11.23-10.68,25-21.73,24.24-12-.8-22.46-11.16-22.45-23.89c0-13,9.39-23.35,21.14-23.37c14.12-.02,23,8.85,23.04,23.02Z" fill="#2d55a6"/><path d="M721.86,631.4c2.3,7.71,1.48,15.07-1.88,22.4-11.51,25.15-24,49.73-40.21,72.27-19.33,26.8-41.31,50.85-67.63,71.08-21.5,16.54-44.5,30-69,41.65-29.36,13.94-60.37,21.41-92.1,25.7-30.739755,4.060459-61.904836,3.659654-92.53-1.19-24.45-3.8-48.37-10.44-70.8-21.13-7-3.33-14.29-7.3-18.59-14.51-1.035104-1.893906-2.966403-3.127373-5.12-3.27-10.46-1.49-20.87-3.34-31.31-5-1.59-.26-2.61.72-3.92,1.77-5.3,4.27-11.54,5.61-18.42,6-20.495772,1.370702-40.940121-3.339464-58.77-13.54C129.4,801.12,118,781,112.08,757.31c-3.84-15.29-4.53-31-3.18-46.65.46-5.3,1.84-10.6,5.69-14.69c3.08-3.29,2.73-6.93,1.92-10.9-3.07-15.12-9.8-29-14.79-43.45-2-5.75-2.63-11.48-1.09-17.25.68-2.52.29-4.16-1.4-5.79-7.69-7.42-12.59-16.88-18.41-25.64-.86-1.3-2.23-3.1-1.36-5c5.21-11.74,1.25-23.41.06-35.18-3-29.39-4-58.77-.28-88.26c1.23-9.81,2.19-19.66,4.08-29.37c1.31-6.77-.27-13-2.6-19.19" fill="none" stroke="#2d55a6" stroke-width="2" stroke-linecap="round" stroke-linejoin="round"/><path d="M146.51,12.47C118.05,12.63,99,27.77,86,51.54c-10.5,19.17-11.66,39.82-5.8,60.65c3.839709,14.15933,11.812399,26.852967,22.9,36.46c22.76,19.71,48.45,23.13,75.22,10.62c22.33-10.44,35.84-29.26,40.88-53.47c4-19.38,1.71-38.22-8.25-55.57-14.08-24.57-34.46-38.86-63.8-37.76" fill="none" stroke="#2d55a6" stroke-width="2" stroke-linecap="round" stroke-linejoin="round"/><path d="M666.3,458.77c14.27-26.26,25.27-53.94,35.78-81.84c1.15-3,1.7-7.28,4-8.73c9.44-6.08,7-14.87,6.17-23.24-.72-7.49-1.89-15-3.23-22.36-.37-2-1-3.28.66-5.21c5.36-6.14,7.25-13.37,7.26-21.67c0-20.21-.54-40.17-9.71-58.83-8.86-18-21.6-31.43-40.06-40.65-17.66-8.83-35.8-9.29-54.47-9.21-3.21,0-6.59.48-8.86,2.63-7.74,7.35-16.48,4.84-24.25,1.61-13.79-5.73-27.8-11-41-18.16-10-5.37-21.17-7.91-31.84-11.68-19.165406-6.891062-39.128498-11.319837-59.41-13.18-19.957439-1.699751-40.0152-1.880271-60-.54C353.1,150,320.91,159.48,289.68,172c-26.2,10.5-50.48,25-73,42.4-50.21,38.84-86,88.34-110.41,146.53-7.18,17.05-12.37,35-23,50.53-1.22,1.78-2.21,3.82-4.48,4.45C52.4,423.31,40,444.89,30,467.22c-15.19,34-6.68,65.64,13.66,95.17c5.074571,7.170705,10.886279,13.790154,17.34,19.75c5,4.7,10.86,7.33,17.85,7.06" fill="none" stroke="#2d55a6" stroke-width="2" stroke-linecap="round" stroke-linejoin="round"/><path d="M190.57,518.23c.77,8,1.77,15.87,5.75,23c9.48,17,27.6,25.14,47.24,21.69c17.12-3,31-19.83,33.26-38.94c2.71-23.29-8.45-44.46-34.55-52.34-13.36-4-36.47,5.77-44.18,19.64-4.43971,8.094894-7.009314,17.081674-7.52,26.3" fill="none" stroke="#2d55a6" stroke-width="2" stroke-linecap="round" stroke-linejoin="round"/><path d="M748.68,425.52c6.549616.649319,12.67105,3.550992,17.32,8.21c11.4,10.91,21.34,22.82,28,37.2c16.64,36,10.82,71.43-14.07,103.53-3.69,4.75-8.09,8.94-12.07,13.48-3.07,3.51-6.88,7.37-10.92,8-12.43,1.86-17.2,11.73-23.58,20.13-1,1.32-2.39,2.42-3.14,3.86-3.8,7.3-8.67,11.58-17.94,11.16-8.1-.37-14.43,6.17-21.69,9.3-29.30607,12.790469-59.610767,23.158481-90.61,31-23.89,6-48,10-72.26,13.56-8.46,1.24-17.5,2.13-25.52-3-2.47-1.58-4.89-.34-7,.69-9.866485,4.895248-20.10516,9.001418-30.62,12.28-2.95.9-5.19,1.25-7.72-.2-5.16-3-10.7-3.87-16.61-3.88-20.86-.07-41.8.74-62.56-.87-25.36-2-50.75-3.74-76.05-7.09-35.33-4.67-69.54-13.55-103.36-24.12-26.338595-8.279025-51.795412-19.138368-76-32.42-6.32-3.44-13-6-20.42-5.14" fill="none" stroke="#2d55a6" stroke-width="2" stroke-linecap="round" stroke-linejoin="round"/><path d="M460.05,697.26c-1.8,10.77-9.15,17.41-17.22,23.69-21.24,16.53-42.9,32.5-65.86,46.54-20.08,12.28-40.55,23.87-62.43,32.91-10.42,4.31-20.65,9-31.32,12.76-6,2.12-11.77,5.5-15.38,11.33" fill="none" stroke="#2d55a6" stroke-width="2" stroke-linecap="round" stroke-linejoin="round"/><path d="M666.3,459.4c6.26,9.42,14.83,17.27,19.72,27.54c16.85,35.32,3.36,80.14-38.31,94.36-11.476652,3.940483-24.020986,3.379383-35.1-1.57-6-2.59-11.87-5.53-18.43-6.72-.72-.13-2.56.68-3.36-1.67-4.14-12.07-13.47-21.26-17.4-33.84-11-35.22,9.8-75.94,43.64-83.54c11.021744-2.673489,22.577547-2.146175,33.31,1.52c4.92,1.65,9.94,3.39,15.3,3.29" fill="none" stroke="#2d55a6" stroke-width="2" stroke-linecap="round" stroke-linejoin="round"/><path d="M713.56,360.94c10.67,6.63,13.57,18,17.21,28.78c4.048447,11.543498,9.2234,22.660436,15.45,33.19.76,1.32,2,2.33,1.16,3.87-5.29,9.84-2.38,20.1-1.12,30.05c3.189948,25.029747,3.859972,50.316445,2,75.48-1.221867,16.522143-3.378655,32.961809-6.46,49.24-1.069527,6.135696.015065,12.452475,3.07,17.88" fill="none" stroke="#2d55a6" stroke-width="2" stroke-linecap="round" stroke-linejoin="round"/><path d="M231.44,818.74c-4.5-10.56-13.23-17.39-21.76-24.24-16.519407-13.429764-31.694111-28.433665-45.31-44.8-11.935404-14.102044-22.81806-29.062353-32.56-44.76-3.51-5.69-8.12-10.12-14.68-12.16" fill="none" stroke="#2d55a6" stroke-width="2" stroke-linecap="round" stroke-linejoin="round"/><path d="M595.42,195.34c3.7,8.14,9.47,14.34,16.51,19.94c20.49,16.3,38.32,35.35,55,55.48c9.701363,11.795765,18.665087,24.179329,26.84,37.08c3.245229,4.903818,7.904556,8.705215,13.36,10.9" fill="none" stroke="#2d55a6" stroke-width="2" stroke-linecap="round" stroke-linejoin="round"/><path d="M591,573.22c-11.55,15.17-24.24,29.36-37,43.51-14,15.57-28.06,31.15-43.55,45.27-5.532076,4.769698-9.133941,11.393858-10.13,18.63" fill="none" stroke="#2d55a6" stroke-width="2" stroke-linecap="round" stroke-linejoin="round"/><path d="M848.3,189.58c-1.33-6-1.66-11.84-5.52-17.42-7.048361-10.030826-19.941056-14.098969-31.47-9.93-12,4.66-18.71,15.31-17.79,28.62c1.47,21.4,21.37,33.81,38.77,24.87c10.13-5.21,15.47-13.84,15.37-25.5" fill="none" stroke="#2d55a6" stroke-width="2" stroke-linecap="round" stroke-linejoin="round"/><path d="M806.15,697.9c13.67-.63,22.67,16.39,19.16,28.77-3.17,11.21-10.73,17.88-21.07,18.54-8.8.56-19.36-6.75-22.23-16.66-4.11-14.19,3.56-33.29,23.5-30.65" fill="none" stroke="#2d55a6" stroke-width="2" stroke-linecap="round" stroke-linejoin="round"/><path d="M323.39,584.72c.71,7-1.62,14.29,1.82,21.15.7,1.41-1.25,1.85-2.46,2.19" fill="none" stroke="#2d55a6" stroke-width="2" stroke-linecap="round" stroke-linejoin="round"/><path d="M17.52,667.21l25.54.63" fill="none" stroke="#2d55a6" stroke-width="2" stroke-linecap="round" stroke-linejoin="round"/></g></g></g></g><script><![CDATA[!function(t,n){"object"==typeof exports&&"undefined"!=typeof module?module.exports=n():"function"==typeof define&&define.amd?define(n):((t="undefined"!=typeof globalThis?globalThis:t||self).__SVGATOR_PLAYER__=t.__SVGATOR_PLAYER__||{},t.__SVGATOR_PLAYER__["5c7f360c"]=n())}(this,(function(){"use strict";function t(t,n){var r=Object.keys(t);if(Object.getOwnPropertySymbols){var e=Object.getOwnPropertySymbols(t);n&&(e=e.filter((function(n){return Object.getOwnPropertyDescriptor(t,n).enumerable}))),r.push.apply(r,e)}return r}function n(n){for(var r=1;r<arguments.length;r++){var e=null!=arguments[r]?arguments[r]:{};r%2?t(Object(e),!0).forEach((function(t){u(n,t,e[t])})):Object.getOwnPropertyDescriptors?Object.defineProperties(n,Object.getOwnPropertyDescriptors(e)):t(Object(e)).forEach((function(t){Object.defineProperty(n,t,Object.getOwnPropertyDescriptor(e,t))}))}return n}function r(t){return(r="function"==typeof Symbol&&"symbol"==typeof Symbol.iterator?function(t){return typeof t}:function(t){return t&&"function"==typeof Symbol&&t.constructor===Symbol&&t!==Symbol.prototype?"symbol":typeof t})(t)}function e(t,n){if(!(t instanceof n))throw new TypeError("Cannot call a class as a function")}function i(t,n){for(var r=0;r<n.length;r++){var e=n[r];e.enumerable=e.enumerable||!1,e.configurable=!0,"value"in e&&(e.writable=!0),Object.defineProperty(t,e.key,e)}}function o(t,n,r){return n&&i(t.prototype,n),r&&i(t,r),t}function u(t,n,r){return n in t?Object.defineProperty(t,n,{value:r,enumerable:!0,configurable:!0,writable:!0}):t[n]=r,t}function a(t){return(a=Object.setPrototypeOf?Object.getPrototypeOf:function(t){return t.__proto__||Object.getPrototypeOf(t)})(t)}function l(t,n){return(l=Object.setPrototypeOf||function(t,n){return t.__proto__=n,t})(t,n)}function f(){if("undefined"==typeof Reflect||!Reflect.construct)return!1;if(Reflect.construct.sham)return!1;if("function"==typeof Proxy)return!0;try{return Boolean.prototype.valueOf.call(Reflect.construct(Boolean,[],(function(){}))),!0}catch(t){return!1}}function s(t,n,r){return(s=f()?Reflect.construct:function(t,n,r){var e=[null];e.push.apply(e,n);var i=new(Function.bind.apply(t,e));return r&&l(i,r.prototype),i}).apply(null,arguments)}function c(t,n){if(n&&("object"==typeof n||"function"==typeof n))return n;if(void 0!==n)throw new TypeError("Derived constructors may only return object or undefined");return function(t){if(void 0===t)throw new ReferenceError("this hasn't been initialised - super() hasn't been called");return t}(t)}function h(t,n,r){return(h="undefined"!=typeof Reflect&&Reflect.get?Reflect.get:function(t,n,r){var e=function(t,n){for(;!Object.prototype.hasOwnProperty.call(t,n)&&null!==(t=a(t)););return t}(t,n);if(e){var i=Object.getOwnPropertyDescriptor(e,n);return i.get?i.get.call(r):i.value}})(t,n,r||t)}function v(t){return function(t){if(Array.isArray(t))return y(t)}(t)||function(t){if("undefined"!=typeof Symbol&&null!=t[Symbol.iterator]||null!=t["@@iterator"])return Array.from(t)}(t)||function(t,n){if(!t)return;if("string"==typeof t)return y(t,n);var r=Object.prototype.toString.call(t).slice(8,-1);"Object"===r&&t.constructor&&(r=t.constructor.name);if("Map"===r||"Set"===r)return Array.from(t);if("Arguments"===r||/^(?:Ui|I)nt(?:8|16|32)(?:Clamped)?Array$/.test(r))return y(t,n)}(t)||function(){throw new TypeError("Invalid attempt to spread non-iterable instance.\nIn order to be iterable, non-array objects must have a [Symbol.iterator]() method.")}()}function y(t,n){(null==n||n>t.length)&&(n=t.length);for(var r=0,e=new Array(n);r<n;r++)e[r]=t[r];return e}var g=d(Math.pow(10,-6));function d(t){var n=arguments.length>1&&void 0!==arguments[1]?arguments[1]:6;if(Number.isInteger(t))return t;var r=Math.pow(10,n);return Math.round((+t+Number.EPSILON)*r)/r}function p(t,n){var r=arguments.length>2&&void 0!==arguments[2]?arguments[2]:g;return Math.abs(t-n)<r}var m=Math.PI/180;function b(t){return t}function w(t,n,r){var e=1-r;return 3*r*e*(t*e+n*r)+r*r*r}function A(){var t=arguments.length>0&&void 0!==arguments[0]?arguments[0]:0,n=arguments.length>1&&void 0!==arguments[1]?arguments[1]:0,r=arguments.length>2&&void 0!==arguments[2]?arguments[2]:1,e=arguments.length>3&&void 0!==arguments[3]?arguments[3]:1;return t<0||t>1||r<0||r>1?null:p(t,n)&&p(r,e)?b:function(i){if(i<=0)return t>0?i*n/t:0===n&&r>0?i*e/r:0;if(i>=1)return r<1?1+(i-1)*(e-1)/(r-1):1===r&&t<1?1+(i-1)*(n-1)/(t-1):1;for(var o,u=0,a=1;u<a;){var l=w(t,r,o=(u+a)/2);if(p(i,l))break;l<i?u=o:a=o}return w(n,e,o)}}function x(){return 1}function k(t){return 1===t?1:0}function S(){var t=arguments.length>0&&void 0!==arguments[0]?arguments[0]:1,n=arguments.length>1&&void 0!==arguments[1]?arguments[1]:0;if(1===t){if(0===n)return k;if(1===n)return x}var r=1/t;return function(t){return t>=1?1:(t+=n*r)-t%r}}var _=Math.sin,O=Math.cos,j=Math.acos,M=Math.asin,P=Math.tan,E=Math.atan2,I=Math.PI/180,R=180/Math.PI,F=Math.sqrt,N=function(){function t(){var n=arguments.length>0&&void 0!==arguments[0]?arguments[0]:1,r=arguments.length>1&&void 0!==arguments[1]?arguments[1]:0,i=arguments.length>2&&void 0!==arguments[2]?arguments[2]:0,o=arguments.length>3&&void 0!==arguments[3]?arguments[3]:1,u=arguments.length>4&&void 0!==arguments[4]?arguments[4]:0,a=arguments.length>5&&void 0!==arguments[5]?arguments[5]:0;e(this,t),this.m=[n,r,i,o,u,a],this.i=null,this.w=null,this.s=null}return o(t,[{key:"determinant",get:function(){var t=this.m;return t[0]*t[3]-t[1]*t[2]}},{key:"isIdentity",get:function(){if(null===this.i){var t=this.m;this.i=1===t[0]&&0===t[1]&&0===t[2]&&1===t[3]&&0===t[4]&&0===t[5]}return this.i}},{key:"point",value:function(t,n){var r=this.m;return{x:r[0]*t+r[2]*n+r[4],y:r[1]*t+r[3]*n+r[5]}}},{key:"translateSelf",value:function(){var t=arguments.length>0&&void 0!==arguments[0]?arguments[0]:0,n=arguments.length>1&&void 0!==arguments[1]?arguments[1]:0;if(!t&&!n)return this;var r=this.m;return r[4]+=r[0]*t+r[2]*n,r[5]+=r[1]*t+r[3]*n,this.w=this.s=this.i=null,this}},{key:"rotateSelf",value:function(){var t=arguments.length>0&&void 0!==arguments[0]?arguments[0]:0;if(t%=360){var n=_(t*=I),r=O(t),e=this.m,i=e[0],o=e[1];e[0]=i*r+e[2]*n,e[1]=o*r+e[3]*n,e[2]=e[2]*r-i*n,e[3]=e[3]*r-o*n,this.w=this.s=this.i=null}return this}},{key:"scaleSelf",value:function(){var t=arguments.length>0&&void 0!==arguments[0]?arguments[0]:1,n=arguments.length>1&&void 0!==arguments[1]?arguments[1]:1;if(1!==t||1!==n){var r=this.m;r[0]*=t,r[1]*=t,r[2]*=n,r[3]*=n,this.w=this.s=this.i=null}return this}},{key:"skewSelf",value:function(t,n){if(n%=360,(t%=360)||n){var r=this.m,e=r[0],i=r[1],o=r[2],u=r[3];t&&(t=P(t*I),r[2]+=e*t,r[3]+=i*t),n&&(n=P(n*I),r[0]+=o*n,r[1]+=u*n),this.w=this.s=this.i=null}return this}},{key:"resetSelf",value:function(){var t=arguments.length>0&&void 0!==arguments[0]?arguments[0]:1,n=arguments.length>1&&void 0!==arguments[1]?arguments[1]:0,r=arguments.length>2&&void 0!==arguments[2]?arguments[2]:0,e=arguments.length>3&&void 0!==arguments[3]?arguments[3]:1,i=arguments.length>4&&void 0!==arguments[4]?arguments[4]:0,o=arguments.length>5&&void 0!==arguments[5]?arguments[5]:0,u=this.m;return u[0]=t,u[1]=n,u[2]=r,u[3]=e,u[4]=i,u[5]=o,this.w=this.s=this.i=null,this}},{key:"recomposeSelf",value:function(){var t=arguments.length>0&&void 0!==arguments[0]?arguments[0]:null,n=arguments.length>1&&void 0!==arguments[1]?arguments[1]:null,r=arguments.length>2&&void 0!==arguments[2]?arguments[2]:null,e=arguments.length>3&&void 0!==arguments[3]?arguments[3]:null,i=arguments.length>4&&void 0!==arguments[4]?arguments[4]:null;return this.isIdentity||this.resetSelf(),t&&(t.x||t.y)&&this.translateSelf(t.x,t.y),n&&this.rotateSelf(n),r&&(r.x&&this.skewSelf(r.x,0),r.y&&this.skewSelf(0,r.y)),!e||1===e.x&&1===e.y||this.scaleSelf(e.x,e.y),i&&(i.x||i.y)&&this.translateSelf(i.x,i.y),this}},{key:"decompose",value:function(){var t=arguments.length>0&&void 0!==arguments[0]?arguments[0]:0,n=arguments.length>1&&void 0!==arguments[1]?arguments[1]:0,r=this.m,e=r[0]*r[0]+r[1]*r[1],i=[[r[0],r[1]],[r[2],r[3]]],o=F(e);if(0===o)return{origin:{x:d(r[4]),y:d(r[5])},translate:{x:d(t),y:d(n)},scale:{x:0,y:0},skew:{x:0,y:0},rotate:0};i[0][0]/=o,i[0][1]/=o;var u=r[0]*r[3]-r[1]*r[2]<0;u&&(o=-o);var a=i[0][0]*i[1][0]+i[0][1]*i[1][1];i[1][0]-=i[0][0]*a,i[1][1]-=i[0][1]*a;var l=F(i[1][0]*i[1][0]+i[1][1]*i[1][1]);if(0===l)return{origin:{x:d(r[4]),y:d(r[5])},translate:{x:d(t),y:d(n)},scale:{x:d(o),y:0},skew:{x:0,y:0},rotate:0};i[1][0]/=l,i[1][1]/=l,a/=l;var f=0;return i[1][1]<0?(f=j(i[1][1])*R,i[0][1]<0&&(f=360-f)):f=M(i[0][1])*R,u&&(f=-f),a=E(a,F(i[0][0]*i[0][0]+i[0][1]*i[0][1]))*R,u&&(a=-a),{origin:{x:d(r[4]),y:d(r[5])},translate:{x:d(t),y:d(n)},scale:{x:d(o),y:d(l)},skew:{x:d(a),y:0},rotate:d(f)}}},{key:"clone",value:function(){var t=this.m;return new this.constructor(t[0],t[1],t[2],t[3],t[4],t[5])}},{key:"toString",value:function(){var t=arguments.length>0&&void 0!==arguments[0]?arguments[0]:" ";if(null===this.s){var n=this.m.map((function(t){return d(t)}));1===n[0]&&0===n[1]&&0===n[2]&&1===n[3]?this.s="translate("+n[4]+t+n[5]+")":this.s="matrix("+n.join(t)+")"}return this.s}}],[{key:"create",value:function(t){return t?Array.isArray(t)?s(this,v(t)):t instanceof this?t.clone():(new this).recomposeSelf(t.origin,t.rotate,t.skew,t.scale,t.translate):new this}}]),t}();function T(t,n,r){return t>=.5?r:n}function B(t,n,r){return 0===t||n===r?n:t*(r-n)+n}function q(t,n,r){var e=B(t,n,r);return e<=0?0:e}function L(t,n,r){var e=B(t,n,r);return e<=0?0:e>=1?1:e}function C(t,n,r){return 0===t?n:1===t?r:{x:B(t,n.x,r.x),y:B(t,n.y,r.y)}}function D(t,n,r){var e=function(t,n,r){return Math.round(B(t,n,r))}(t,n,r);return e<=0?0:e>=255?255:e}function z(t,n,r){return 0===t?n:1===t?r:{r:D(t,n.r,r.r),g:D(t,n.g,r.g),b:D(t,n.b,r.b),a:B(t,null==n.a?1:n.a,null==r.a?1:r.a)}}function V(t,n){for(var r=[],e=0;e<t;e++)r.push(n);return r}function G(t,n){if(--n<=0)return t;var r=(t=Object.assign([],t)).length;do{for(var e=0;e<r;e++)t.push(t[e])}while(--n>0);return t}var Y,$=function(){function t(n){e(this,t),this.list=n,this.length=n.length}return o(t,[{key:"setAttribute",value:function(t,n){for(var r=this.list,e=0;e<this.length;e++)r[e].setAttribute(t,n)}},{key:"removeAttribute",value:function(t){for(var n=this.list,r=0;r<this.length;r++)n[r].removeAttribute(t)}},{key:"style",value:function(t,n){for(var r=this.list,e=0;e<this.length;e++)r[e].style[t]=n}}]),t}(),U=/-./g,Q=function(t,n){return n.toUpperCase()};function H(t){return"function"==typeof t?t:T}function J(t){return t?"function"==typeof t?t:Array.isArray(t)?function(t){var n=arguments.length>1&&void 0!==arguments[1]?arguments[1]:b;if(!Array.isArray(t))return n;switch(t.length){case 1:return S(t[0])||n;case 2:return S(t[0],t[1])||n;case 4:return A(t[0],t[1],t[2],t[3])||n}return n}(t,null):function(t,n){var r=arguments.length>2&&void 0!==arguments[2]?arguments[2]:b;switch(t){case"linear":return b;case"steps":return S(n.steps||1,n.jump||0)||r;case"bezier":case"cubic-bezier":return A(n.x1||0,n.y1||0,n.x2||0,n.y2||0)||r}return r}(t.type,t.value,null):null}function Z(t,n,r){var e=arguments.length>3&&void 0!==arguments[3]&&arguments[3],i=n.length-1;if(t<=n[0].t)return e?[0,0,n[0].v]:n[0].v;if(t>=n[i].t)return e?[i,1,n[i].v]:n[i].v;var o,u=n[0],a=null;for(o=1;o<=i;o++){if(!(t>n[o].t)){a=n[o];break}u=n[o]}return null==a?e?[i,1,n[i].v]:n[i].v:u.t===a.t?e?[o,1,a.v]:a.v:(t=(t-u.t)/(a.t-u.t),u.e&&(t=u.e(t)),e?[o,t,r(t,u.v,a.v)]:r(t,u.v,a.v))}function K(t,n){var r=arguments.length>2&&void 0!==arguments[2]?arguments[2]:null;return t&&t.length?"function"!=typeof n?null:("function"!=typeof r&&(r=null),function(e){var i=Z(e,t,n);return null!=i&&r&&(i=r(i)),i}):null}function W(t,n){return t.t-n.t}function X(t,n,e,i,o){var u,a="@"===e[0],l="#"===e[0],f=Y[e],s=T;switch(a?(u=e.substr(1),e=u.replace(U,Q)):l&&(e=e.substr(1)),r(f)){case"function":if(s=f(i,o,Z,J,e,a,n,t),l)return s;break;case"string":s=K(i,H(f));break;case"object":if((s=K(i,H(f.i),f.f))&&"function"==typeof f.u)return f.u(n,s,e,a,t)}return s?function(t,n,r){if(arguments.length>3&&void 0!==arguments[3]&&arguments[3])return t instanceof $?function(e){return t.style(n,r(e))}:function(e){return t.style[n]=r(e)};if(Array.isArray(n)){var e=n.length;return function(i){var o=r(i);if(null==o)for(var u=0;u<e;u++)t[u].removeAttribute(n);else for(var a=0;a<e;a++)t[a].setAttribute(n,o)}}return function(e){var i=r(e);null==i?t.removeAttribute(n):t.setAttribute(n,i)}}(n,e,s,a):null}function tt(t,n,e,i){if(!i||"object"!==r(i))return null;var o=null,u=null;return Array.isArray(i)?u=function(t){if(!t||!t.length)return null;for(var n=0;n<t.length;n++)t[n].e&&(t[n].e=J(t[n].e));return t.sort(W)}(i):(u=i.keys,o=i.data||null),u?X(t,n,e,u,o):null}function nt(t,n,r){if(!r)return null;var e=[];for(var i in r)if(r.hasOwnProperty(i)){var o=tt(t,n,i,r[i]);o&&e.push(o)}return e.length?e:null}function rt(t,n){if(!n.duration||n.duration<0)return null;var r=function(t,n){if(!n)return null;var r=[];if(Array.isArray(n))for(var e=n.length,i=0;i<e;i++){var o=n[i];if(2===o.length){var u=null;if("string"==typeof o[0])u=t.getElementById(o[0]);else if(Array.isArray(o[0])){u=[];for(var a=0;a<o[0].length;a++)if("string"==typeof o[0][a]){var l=t.getElementById(o[0][a]);l&&u.push(l)}u=u.length?1===u.length?u[0]:new $(u):null}if(u){var f=nt(t,u,o[1]);f&&(r=r.concat(f))}}}else for(var s in n)if(n.hasOwnProperty(s)){var c=t.getElementById(s);if(c){var h=nt(t,c,n[s]);h&&(r=r.concat(h))}}return r.length?r:null}(t,n.elements);return r?function(t,n){var r=arguments.length>2&&void 0!==arguments[2]?arguments[2]:1/0,e=arguments.length>3&&void 0!==arguments[3]?arguments[3]:1,i=arguments.length>4&&void 0!==arguments[4]&&arguments[4],o=arguments.length>5&&void 0!==arguments[5]?arguments[5]:1,u=t.length,a=e>0?n:0;i&&r%2==0&&(a=n-a);var l=null;return function(f,s){var c=f%n,h=1+(f-c)/n;s*=e,i&&h%2==0&&(s=-s);var v=!1;if(h>r)c=a,v=!0,-1===o&&(c=e>0?0:n);else if(s<0&&(c=n-c),c===l)return!1;l=c;for(var y=0;y<u;y++)t[y](c);return v}}(r,n.duration,n.iterations||1/0,n.direction||1,!!n.alternate,n.fill||1):null}function et(t){return+("0x"+(t.replace(/[^0-9a-fA-F]+/g,"")||27))}function it(t,n,r){return!t||!r||n>t.length?t:t.substring(0,n)+it(t.substring(n+1),r,r)}function ot(t){var n=arguments.length>1&&void 0!==arguments[1]?arguments[1]:27;return!t||t%n?t%n:ot(t/n,n)}function ut(t,n,r){if(t&&t.length){var e=et(r),i=et(n),o=ot(e)+5,u=it(t,ot(e,5),o);return u=u.replace(/\x7c$/g,"==").replace(/\x2f$/g,"="),u=function(t,n,r){var e=+("0x"+t.substring(0,4));t=t.substring(4);for(var i=n%e+r%27,o=[],u=0;u<t.length;u+=2)if("|"!==t[u]){var a=+("0x"+t[u]+t[u+1])-i;o.push(a)}else{var l=+("0x"+t.substring(u+1,u+1+4))-i;u+=3,o.push(l)}return String.fromCharCode.apply(String,o)}(u=(u=atob(u)).replace(/[\x41-\x5A]/g,""),i,e),u=JSON.parse(u)}}Number.isInteger||(Number.isInteger=function(t){return"number"==typeof t&&isFinite(t)&&Math.floor(t)===t}),Number.EPSILON||(Number.EPSILON=2220446049250313e-31);var at=function(){function t(n,r){var i=arguments.length>2&&void 0!==arguments[2]?arguments[2]:{};e(this,t),this._id=0,this._running=!1,this._rollingBack=!1,this._animations=n,this.duration=r.duration,this.alternate=r.alternate,this.fill=r.fill,this.iterations=r.iterations,this.direction=i.direction||1,this.speed=i.speed||1,this.fps=i.fps||100,this.offset=i.offset||0,this.rollbackStartOffset=0}return o(t,[{key:"_rollback",value:function(){var t=this,n=1/0,r=null;this.rollbackStartOffset=this.offset,this._rollingBack||(this._rollingBack=!0,this._running=!0);this._id=window.requestAnimationFrame((function e(i){if(t._rollingBack){null==r&&(r=i);var o=i-r,u=t.rollbackStartOffset-o,a=Math.round(u*t.speed);if(a>t.duration&&n!=1/0){var l=!!t.alternate&&a/t.duration%2>1,f=a%t.duration;a=(f+=l?t.duration:0)||t.duration}var s=t.fps?1e3/t.fps:0,c=Math.max(0,a);if(c<n-s){t.offset=c,n=c;for(var h=t._animations,v=h.length,y=0;y<v;y++)h[y](c,t.direction)}var g=!1;if(t.iterations>0&&-1===t.fill){var d=t.iterations*t.duration,p=d==a;a=p?0:a,t.offset=p?0:t.offset,g=a>d}a>0&&t.offset>=a&&!g?t._id=window.requestAnimationFrame(e):t.stop()}}))}},{key:"_start",value:function(){var t=this,n=arguments.length>0&&void 0!==arguments[0]?arguments[0]:0,r=-1/0,e=null,i={},o=function o(u){t._running=!0,null==e&&(e=u);var a=Math.round((u-e+n)*t.speed),l=t.fps?1e3/t.fps:0;if(a>r+l&&!t._rollingBack){t.offset=a,r=a;for(var f=t._animations,s=f.length,c=0,h=0;h<s;h++)i[h]?c++:(i[h]=f[h](a,t.direction),i[h]&&c++);if(c===s)return void t._stop()}t._id=window.requestAnimationFrame(o)};this._id=window.requestAnimationFrame(o)}},{key:"_stop",value:function(){this._id&&window.cancelAnimationFrame(this._id),this._running=!1,this._rollingBack=!1}},{key:"play",value:function(){!this._rollingBack&&this._running||(this._rollingBack=!1,this.rollbackStartOffset>this.duration&&(this.offset=this.rollbackStartOffset-(this.rollbackStartOffset-this.offset)%this.duration,this.rollbackStartOffset=0),this._start(this.offset))}},{key:"stop",value:function(){this._stop(),this.offset=0,this.rollbackStartOffset=0;var t=this.direction,n=this._animations;window.requestAnimationFrame((function(){for(var r=0;r<n.length;r++)n[r](0,t)}))}},{key:"reachedToEnd",value:function(){return this.iterations>0&&this.offset>=this.iterations*this.duration}},{key:"restart",value:function(){this._stop(),this.offset=0,this._start()}},{key:"pause",value:function(){this._stop()}},{key:"reverse",value:function(){this.direction=-this.direction}}],[{key:"build",value:function(r,e){return delete r.animationSettings,r.options=ut(r.options,r.root,"5c7f360c"),r.animations.map((function(t){var e=ut(t.s,r.root,"5c7f360c");for(var i in delete t.s,r.animationSettings||(r.animationSettings=n({},e)),e)e.hasOwnProperty(i)&&(t[i]=e[i])})),(r=function(t,n){if(Y=n,!t||!t.root||!Array.isArray(t.animations))return null;for(var r=document.getElementsByTagName("svg"),e=!1,i=0;i<r.length;i++)if(r[i].id===t.root&&!r[i].svgatorAnimation){(e=r[i]).svgatorAnimation=!0;break}if(!e)return null;var o=t.animations.map((function(t){return rt(e,t)})).filter((function(t){return!!t}));return o.length?{element:e,animations:o,animationSettings:t.animationSettings,options:t.options||void 0}:null}(r,e))?{el:r.element,options:r.options||{},player:new t(r.animations,r.animationSettings,r.options)}:null}},{key:"push",value:function(t){return this.build(t)}},{key:"init",value:function(){var t=this,n=window.__SVGATOR_PLAYER__&&window.__SVGATOR_PLAYER__["5c7f360c"];Array.isArray(n)&&n.splice(0).forEach((function(n){return t.build(n)}))}}]),t}();function lt(t){return d(t)+""}function ft(t){var n=arguments.length>1&&void 0!==arguments[1]?arguments[1]:" ";return t&&t.length?t.map(lt).join(n):""}function st(t){if(!t)return"transparent";if(null==t.a||t.a>=1){var n=function(t){return 1===(t=parseInt(t).toString(16)).length?"0"+t:t},r=function(t){return t.charAt(0)===t.charAt(1)},e=n(t.r),i=n(t.g),o=n(t.b);return r(e)&&r(i)&&r(o)&&(e=e.charAt(0),i=i.charAt(0),o=o.charAt(0)),"#"+e+i+o}return"rgba("+t.r+","+t.g+","+t.b+","+t.a+")"}function ct(t){return t?"url(#"+t+")":"none"}!function(){for(var t=0,n=["ms","moz","webkit","o"],r=0;r<n.length&&!window.requestAnimationFrame;++r)window.requestAnimationFrame=window[n[r]+"RequestAnimationFrame"],window.cancelAnimationFrame=window[n[r]+"CancelAnimationFrame"]||window[n[r]+"CancelRequestAnimationFrame"];window.requestAnimationFrame||(window.requestAnimationFrame=function(n){var r=Date.now(),e=Math.max(0,16-(r-t)),i=window.setTimeout((function(){n(r+e)}),e);return t=r+e,i},window.cancelAnimationFrame=window.clearTimeout)}();var ht={f:null,i:function(t,n,r){return 0===t?n:1===t?r:{x:q(t,n.x,r.x),y:q(t,n.y,r.y)}},u:function(t,n){return function(r){var e=n(r);t.setAttribute("rx",lt(e.x)),t.setAttribute("ry",lt(e.y))}}},vt={f:null,i:function(t,n,r){return 0===t?n:1===t?r:{width:q(t,n.width,r.width),height:q(t,n.height,r.height)}},u:function(t,n){return function(r){var e=n(r);t.setAttribute("width",lt(e.width)),t.setAttribute("height",lt(e.height))}}};Object.freeze({M:2,L:2,Z:0,H:1,V:1,C:6,Q:4,T:2,S:4,A:7});var yt={},gt=null;function dt(t){var n=function(){if(gt)return gt;if("object"!==("undefined"==typeof document?"undefined":r(document))||!document.createElementNS)return{};var t=document.createElementNS("http://www.w3.org/2000/svg","svg");return t&&t.style?(t.style.position="absolute",t.style.opacity="0.01",t.style.zIndex="-9999",t.style.left="-9999px",t.style.width="1px",t.style.height="1px",gt={svg:t}):{}}().svg;if(!n)return function(t){return null};var e=document.createElementNS(n.namespaceURI,"path");e.setAttributeNS(null,"d",t),e.setAttributeNS(null,"fill","none"),e.setAttributeNS(null,"stroke","none"),n.appendChild(e);var i=e.getTotalLength();return function(t){var n=e.getPointAtLength(i*t);return{x:n.x,y:n.y}}}function pt(t){return yt[t]?yt[t]:yt[t]=dt(t)}function mt(t,n,r,e){if(!t||!e)return!1;var i=["M",t.x,t.y];if(n&&r&&(i.push("C"),i.push(n.x),i.push(n.y),i.push(r.x),i.push(r.y)),n?!r:r){var o=n||r;i.push("Q"),i.push(o.x),i.push(o.y)}return n||r||i.push("L"),i.push(e.x),i.push(e.y),i.join(" ")}function bt(t,n,r,e){var i=arguments.length>4&&void 0!==arguments[4]?arguments[4]:1,o=mt(t,n,r,e),u=pt(o);try{return u(i)}catch(t){return null}}function wt(t,n,r,e){var i=1-e;return i*i*t+2*i*e*n+e*e*r}function At(t,n,r,e){return 2*(1-e)*(n-t)+2*e*(r-n)}function xt(t,n,r,e){var i=arguments.length>4&&void 0!==arguments[4]&&arguments[4],o=bt(t,n,null,r,e);return o||(o={x:wt(t.x,n.x,r.x,e),y:wt(t.y,n.y,r.y,e)}),i&&(o.a=kt(t,n,r,e)),o}function kt(t,n,r,e){return Math.atan2(At(t.y,n.y,r.y,e),At(t.x,n.x,r.x,e))}function St(t,n,r,e,i){var o=i*i;return i*o*(e-t+3*(n-r))+3*o*(t+r-2*n)+3*i*(n-t)+t}function _t(t,n,r,e,i){var o=1-i;return 3*(o*o*(n-t)+2*o*i*(r-n)+i*i*(e-r))}function Ot(t,n,r,e,i){var o=arguments.length>5&&void 0!==arguments[5]&&arguments[5],u=bt(t,n,r,e,i);return u||(u={x:St(t.x,n.x,r.x,e.x,i),y:St(t.y,n.y,r.y,e.y,i)}),o&&(u.a=jt(t,n,r,e,i)),u}function jt(t,n,r,e,i){return Math.atan2(_t(t.y,n.y,r.y,e.y,i),_t(t.x,n.x,r.x,e.x,i))}function Mt(t,n,r){return t+(n-t)*r}function Pt(t,n,r){var e=arguments.length>3&&void 0!==arguments[3]&&arguments[3],i={x:Mt(t.x,n.x,r),y:Mt(t.y,n.y,r)};return e&&(i.a=Et(t,n)),i}function Et(t,n){return Math.atan2(n.y-t.y,n.x-t.x)}function It(t,n,r){var e=arguments.length>3&&void 0!==arguments[3]&&arguments[3];if(Ft(n)){if(Nt(r))return xt(n,r.start,r,t,e)}else if(Ft(r)){if(n.end)return xt(n,n.end,r,t,e)}else{if(n.end)return r.start?Ot(n,n.end,r.start,r,t,e):xt(n,n.end,r,t,e);if(r.start)return xt(n,r.start,r,t,e)}return Pt(n,r,t,e)}function Rt(t,n,r){var e=It(t,n,r,!0);return e.a=function(t){return arguments.length>1&&void 0!==arguments[1]&&arguments[1]?t+Math.PI:t}(e.a)/m,e}function Ft(t){return!t.type||"corner"===t.type}function Nt(t){return null!=t.start&&!Ft(t)}var Tt=new N;var Bt={f:lt,i:B},qt={f:lt,i:L};function Lt(t,n,r){return t.map((function(t){return function(t,n,r){var e=t.v;if(!e||"g"!==e.t||e.s||!e.v||!e.r)return t;var i=r.getElementById(e.r),o=i&&i.querySelectorAll("stop")||[];return e.s=e.v.map((function(t,n){var r=o[n]&&o[n].getAttribute("offset");return{c:t,o:r=d(parseInt(r)/100)}})),delete e.v,t}(t,0,r)}))}var Ct={gt:"gradientTransform",c:{x:"cx",y:"cy"},rd:"r",f:{x:"x1",y:"y1"},to:{x:"x2",y:"y2"}};function Dt(t,n,e,i,o,u,a,l){return Lt(t,0,l),n=function(t,n,r){for(var e,i,o,u=t.length-1,a={},l=0;l<=u;l++)(e=t[l]).e&&(e.e=n(e.e)),e.v&&"g"===(i=e.v).t&&i.r&&(o=r.getElementById(i.r))&&(a[i.r]={e:o,s:o.querySelectorAll("stop")});return a}(t,i,l),function(i){var o=e(i,t,zt);if(!o)return"none";if("c"===o.t)return st(o.v);if("g"===o.t){if(!n[o.r])return ct(o.r);var u=n[o.r];return function(t,n){for(var r=t.s,e=r.length;e<n.length;e++){var i=r[r.length-1].cloneNode();i.id=Yt(i.id),t.e.appendChild(i),r=t.s=t.e.querySelectorAll("stop")}for(var o=0,u=r.length,a=n.length-1;o<u;o++)r[o].setAttribute("stop-color",st(n[Math.min(o,a)].c)),r[o].setAttribute("offset",n[Math.min(o,a)].o)}(u,o.s),Object.keys(Ct).forEach((function(t){if(void 0!==o[t])if("object"!==r(Ct[t])){var n,e="gt"===t?(n=o[t],Array.isArray(n)?"matrix("+n.join(" ")+")":""):o[t],i=Ct[t];u.e.setAttribute(i,e)}else Object.keys(Ct[t]).forEach((function(n){if(void 0!==o[t][n]){var r=o[t][n],e=Ct[t][n];u.e.setAttribute(e,r)}}))})),ct(o.r)}return"none"}}function zt(t,r,e){if(0===t)return r;if(1===t)return e;if(r&&e){var i=r.t;if(i===e.t)switch(r.t){case"c":return{t:i,v:z(t,r.v,e.v)};case"g":if(r.r===e.r){var o={t:i,s:Vt(t,r.s,e.s),r:r.r};return r.gt&&e.gt&&(o.gt=function(t,n,r){var e=n.length;if(e!==r.length)return T(t,n,r);for(var i=new Array(e),o=0;o<e;o++)i[o]=B(t,n[o],r[o]);return i}(t,r.gt,e.gt)),r.c?(o.c=C(t,r.c,e.c),o.rd=q(t,r.rd,e.rd)):r.f&&(o.f=C(t,r.f,e.f),o.to=C(t,r.to,e.to)),o}}if("c"===r.t&&"g"===e.t||"c"===e.t&&"g"===r.t){var u="c"===r.t?r:e,a="g"===r.t?n({},r):n({},e),l=a.s.map((function(t){return{c:u.v,o:t.o}}));return a.s="c"===r.t?Vt(t,l,a.s):Vt(t,a.s,l),a}}return T(t,r,e)}function Vt(t,n,r){if(n.length===r.length)return n.map((function(n,e){return Gt(t,n,r[e])}));for(var e=Math.max(n.length,r.length),i=[],o=0;o<e;o++){var u=Gt(t,n[Math.min(o,n.length-1)],r[Math.min(o,r.length-1)]);i.push(u)}return i}function Gt(t,n,r){return{o:L(t,n.o,r.o||0),c:z(t,n.c,r.c||{})}}function Yt(t){return t.replace(/-fill-([0-9]+)$/,(function(t,n){return"-fill-"+(+n+1)}))}var $t={fill:Dt,"fill-opacity":qt,stroke:Dt,"stroke-opacity":qt,"stroke-width":Bt,"stroke-dashoffset":{f:lt,i:B},"stroke-dasharray":{f:function(t){var n=arguments.length>1&&void 0!==arguments[1]?arguments[1]:" ";return t&&t.length>0&&(t=t.map((function(t){return d(t,4)}))),ft(t,n)},i:function(t,n,r){var e,i,o,u=n.length,a=r.length;if(u!==a)if(0===u)n=V(u=a,0);else if(0===a)a=u,r=V(u,0);else{var l=(o=(e=u)*(i=a)/function(t,n){for(var r;n;)r=n,n=t%n,t=r;return t||1}(e,i))<0?-o:o;n=G(n,Math.floor(l/u)),r=G(r,Math.floor(l/a)),u=a=l}for(var f=[],s=0;s<u;s++)f.push(d(q(t,n[s],r[s])));return f}},opacity:qt,transform:function(t,n,e,i){if(!(t=function(t,n){if(!t||"object"!==r(t))return null;var e=!1;for(var i in t)t.hasOwnProperty(i)&&(t[i]&&t[i].length?(t[i].forEach((function(t){t.e&&(t.e=n(t.e))})),e=!0):delete t[i]);return e?t:null}(t,i)))return null;var o=function(r,i,o){var u=arguments.length>3&&void 0!==arguments[3]?arguments[3]:null;return t[r]?e(i,t[r],o):n&&n[r]?n[r]:u};return n&&n.a&&t.o?function(n){var r=e(n,t.o,Rt);return Tt.recomposeSelf(r,o("r",n,B,0)+r.a,o("k",n,C),o("s",n,C),o("t",n,C)).toString()}:function(t){return Tt.recomposeSelf(o("o",t,It,null),o("r",t,B,0),o("k",t,C),o("s",t,C),o("t",t,C)).toString()}},r:Bt,"#size":vt,"#radius":ht,_:function(t,n){if(Array.isArray(t))for(var r=0;r<t.length;r++)this[t[r]]=n;else this[t]=n}},Ut=function(t){!function(t,n){if("function"!=typeof n&&null!==n)throw new TypeError("Super expression must either be null or a function");t.prototype=Object.create(n&&n.prototype,{constructor:{value:t,writable:!0,configurable:!0}}),n&&l(t,n)}(u,t);var n,r,i=(n=u,r=f(),function(){var t,e=a(n);if(r){var i=a(this).constructor;t=Reflect.construct(e,arguments,i)}else t=e.apply(this,arguments);return c(this,t)});function u(){return e(this,u),i.apply(this,arguments)}return o(u,null,[{key:"build",value:function(t){var n=h(a(u),"build",this).call(this,t,$t);if(!n)return null;n.el,n.options,function(t,n,r){t.play()}(n.player)}}]),u}(at);return Ut.init(),Ut}));
(function(s,i,o,w){w[o]=w[o]||{};w[o][s]=w[o][s]||[];w[o][s].push(i);})('5c7f360c',{"root":"e2g6tnfrdiZ1","animations":[{"elements":{"e2g6tnfrdiZ2":{"transform":{"data":{"o":{"x":429.74478,"y":439.499428,"type":"corner"},"s":{"x":0.8,"y":0.8},"t":{"x":-429.744326,"y":-439.499428}},"keys":{"r":[{"t":0,"v":129600},{"t":1540,"v":129240},{"t":2900,"v":129600}]}}}},"s":"MGDA1M2EwNDc4OTlhOTNc4Njk5OGU5NDkzNDcI1ZlQ1ODU1NTU1NTUxCNDc4OThlOTc4YTg4OQTk4ZTk0TDkzNDdVNWAZQNTY1MTQ3OGU5OThIhSjk3ODY5OThlOTRDOOTM5OEk0NzVmNTU1MYTQ3OGI4ZTkxOTE0N1Sk1ZjU2NTE0Nzg2OTEF5OUc4YTk3OTM4Njk5UOGE0NzVmOGI4NjkxOQTg4YTUxNDdIOTg5NTChhOGE4OTQ3NWY1NmECyUA|"}],"options":"MFDAxMDg4MmY4MDgxNmOU3ZjgxMmY0NzJmNzkW3YzZlNzEyZjhh"},'__SVGATOR_PLAYER__',window)]]></script></svg>